<svg viewBox="5.8108108108108105 6.199999999999999 88.91891891891892 87.21000000000001" version="1.1" xmlns="http://www.w3.org/2000/svg" style="max-height: 500px" width="88.91891891891892" height="87.21000000000001">
 <path d="m71.629 20.164c0-2.0742 1.25-3.9492 3.1719-4.7422 1.918-0.79688 4.125-0.35547 5.5938 1.1133s1.9102 3.6758 1.1133 5.5977c-0.79297 1.918-2.668 3.168-4.7461 3.168-2.832-0.003906-5.1289-2.3008-5.1328-5.1367zm-12.117 26c0-0.39062-0.31641-0.70703-0.70703-0.70703h-44.398c-0.39062 0-0.70703 0.31641-0.70703 0.70703v1.2812l45.816 0.16016zm-21.715 17.336v-6.6602c0-0.29688-0.24219-0.53516-0.53906-0.53516h-29.422v7.7344h29.422c0.29688 0 0.53906-0.24219 0.53906-0.53906zm23.309-7.1953c-0.28516 0-0.51953 0.23047-0.51953 0.51953v6.6914c0 0.14062 0.054687 0.27344 0.15234 0.37109 0.097657 0.097656 0.23047 0.15234 0.36719 0.15234h10.801c0.28125 0 0.55469 0.09375 0.77344 0.26953l3.1016 2.4844h10.82c-1.4062-1.8242-2.9492-3.543-4.6094-5.1406-2.0039-1.9414-4.1523-3.7305-6.4219-5.3516zm29.859 32.586h-10.84c1.3555-0.64844 2.082-2.1484 1.75-3.6133s-1.6328-2.5039-3.1367-2.5039c-1.5 0-2.8008 1.0391-3.1328 2.5039s0.39453 2.9648 1.7461 3.6133h-6.4141c1.3555-0.64844 2.082-2.1484 1.75-3.6133s-1.6367-2.5039-3.1367-2.5039-2.8008 1.0391-3.1328 2.5039 0.39062 2.9648 1.7461 3.6133h-42.688c1.3555-0.64844 2.082-2.1484 1.75-3.6133-0.33203-1.4648-1.6328-2.5039-3.1367-2.5039-1.5 0-2.8008 1.0391-3.1328 2.5039s0.39062 2.9648 1.7461 3.6133h-6.4141c1.3555-0.64844 2.082-2.1484 1.75-3.6133-0.33203-1.4648-1.6328-2.5039-3.1367-2.5039-1.5 0-2.8008 1.0391-3.1328 2.5039s0.39062 2.9648 1.7461 3.6133h-4.4805 0.003906c-0.4375-0.035156-0.86719 0.11328-1.1875 0.40625-0.32031 0.29688-0.50391 0.71484-0.50391 1.1484 0 0.4375 0.18359 0.85547 0.50391 1.1523 0.32031 0.29297 0.75 0.44141 1.1875 0.40625h81.926c0.4375 0.035156 0.86719-0.11328 1.1875-0.40625 0.32031-0.29688 0.50391-0.71484 0.50391-1.1523 0-0.43359-0.18359-0.85156-0.50391-1.1484-0.32031-0.29297-0.75-0.44141-1.1875-0.40625zm-37.125-31.855c0-0.40234-0.32812-0.72656-0.73047-0.72656h-7.7773c-0.39844 0-0.72656 0.32812-0.72656 0.72656v11.395h9.2383zm1.3398-22.484c1.0898 0.003907 2.1406-0.41016 2.9375-1.1523 0.54297 0.94141 1.4844 1.582 2.5586 1.7383s2.1602-0.19141 2.9453-0.9375c1.2891 0.86719 3.0156 0.64453 4.043-0.51953 0.85156 0.38281 1.8281 0.35937 2.6602-0.0625 0.83203-0.42578 1.4297-1.1992 1.625-2.1094 0.19141-0.91406-0.035157-1.8672-0.62109-2.5898-0.58594-0.72656-1.4688-1.1484-2.4023-1.1484-0.22266 0-0.44922 0.027344-0.66797 0.082031v-0.078124c0-1.3516-0.76953-2.582-1.9844-3.1758-1.2109-0.59375-2.6562-0.44531-3.7227 0.38281-0.58984-1.8398-2.4023-3.0039-4.3203-2.7695-1.918 0.23437-3.3984 1.7969-3.5273 3.7266-2.2812 0.25-3.9688 2.2422-3.8398 4.5312 0.125 2.293 2.0195 4.0859 4.3164 4.082zm-9.8477 42.422h7.7734c0.40234 0 0.73047-0.32812 0.73047-0.73047v-5.332h-9.2344v5.332c0 0.19531 0.074219 0.37891 0.21484 0.51562 0.13672 0.13672 0.32422 0.21484 0.51562 0.21484zm20.398-55.672h3.168-0.003907c0.62891 0 1.1367-0.50781 1.1367-1.1367 0-0.625-0.50781-1.1328-1.1367-1.1328h-3.1641c-0.62891 0-1.1367 0.50781-1.1367 1.1328 0 0.62891 0.50781 1.1367 1.1367 1.1367zm11.031-7.8633c0.30469 0 0.58984-0.12109 0.80469-0.33203 0.21484-0.21484 0.33203-0.50391 0.33203-0.80469v-3.1719c0-0.625-0.50781-1.1328-1.1367-1.1328-0.625 0-1.1328 0.50781-1.1328 1.1328v3.168c0 0.30469 0.11719 0.59375 0.33203 0.80469 0.21094 0.21484 0.5 0.33594 0.80078 0.33594zm1.1367 17.77v-3.168c0-0.62891-0.50781-1.1367-1.1367-1.1367-0.625 0-1.1328 0.50781-1.1328 1.1367v3.168c0 0.625 0.50781 1.1328 1.1328 1.1328 0.62891 0 1.1367-0.50781 1.1367-1.1328zm-7.5-15.797c0.44531 0.44141 1.1641 0.44141 1.6055 0 0.44531-0.44531 0.44531-1.1641 0-1.6055l-2.2422-2.2422c-0.44531-0.42578-1.1484-0.41406-1.582 0.019531-0.4375 0.4375-0.44531 1.1406-0.019532 1.5859zm14.168 13.699c0.45703 0 0.87109-0.27734 1.0469-0.70312 0.17578-0.42188 0.078125-0.91016-0.24609-1.2344l-2.2383-2.2383v-0.003906c-0.44141-0.44141-1.1602-0.44141-1.6055 0-0.44141 0.44531-0.44141 1.1641 0 1.6055l2.2383 2.2383v0.003906c0.21484 0.21094 0.50391 0.32812 0.80469 0.32812zm-1.0703-8.9375v-0.003906c0 0.30469 0.12109 0.58984 0.33203 0.80469 0.21484 0.21484 0.50391 0.33203 0.80469 0.33203h3.168-0.003906c0.62891 0 1.1367-0.50781 1.1367-1.1367 0-0.625-0.50781-1.1328-1.1367-1.1328h-3.168 0.003906c-0.625 0-1.1328 0.50391-1.1367 1.1289zm-1.168-4.4297c0.30078 0 0.58984-0.12109 0.80078-0.33203l2.2383-2.2383v-0.003906c0.44531-0.44141 0.44531-1.1602 0.003906-1.6055-0.44531-0.44141-1.1641-0.44141-1.6055 0l-2.2383 2.2383h-0.003906c-0.32422 0.32422-0.42188 0.8125-0.24609 1.2383 0.17578 0.42578 0.58984 0.69922 1.0508 0.69922zm-73.094 69.766h-1.3984v-18.992h29.422c1.6641-0.003906 3.0117-1.3516 3.0156-3.0156v-6.6602c-0.003907-1.6641-1.3516-3.0117-3.0156-3.0156h-29.422v-3.9219l52.918 0.18359h0.042969c2.8438-0.085938 6.793 1.3242 10.945 3.7383h-10.625l-0.003907 0.003906c-1.6562 0-3 1.3398-3 2.9961v6.6953c0 0.79297 0.31641 1.5586 0.87891 2.1211s1.3242 0.875 2.1211 0.875h10.363l3.0977 2.4844c0.21875 0.17578 0.49219 0.27344 0.77344 0.27344h13.004c2.4922 3.8633 3.8477 7.6484 3.8477 10.984 0 2.4648-1.3359 3.5273-2.7305 4.457-0.76953 0.51562-1.6758 0.78906-2.6016 0.79297h-2.457c-0.25391-2.9453-2.7148-5.207-5.6719-5.2109h-9.1875c-2.9531 0.003906-5.4141 2.2656-5.668 5.2109h-34.121c-0.25391-2.9453-2.7188-5.207-5.6719-5.2109h-9.1875c-2.9531 0.003906-5.4141 2.2656-5.668 5.2109zm32.887-9.2695v-0.003906c0.003906 1.7734 1.4414 3.2109 3.2109 3.2109h7.7734c1.7734 0 3.207-1.4375 3.2109-3.2109v-19.199c-0.003906-1.7695-1.4375-3.207-3.2109-3.2109h-7.7734c-1.7695 0.003906-3.207 1.4414-3.2109 3.2109z"/>
<text fill="#000000" font-family="Arbeit Regular, Helvetica, Arial-Unicode, Arial, Sans-serif" font-weight="bold" font-size="5.0" y="117.5" x="0.0">Created by krisna arga muria</text><text fill="#000000" font-family="Arbeit Regular, Helvetica, Arial-Unicode, Arial, Sans-serif" font-weight="bold" font-size="5.0" y="122.5" x="0.0">from Noun Project</text></svg>